<svg viewBox="0 0 24 24" fill="none" xmlns="http://www.w3.org/2000/svg">
<path d="M16.7939 24C16.324 23.9999 15.8735 23.8097 15.5413 23.4713L5.51873 13.2645C5.18659 12.9262 5 12.4673 5 11.9889C5 11.5105 5.18659 11.0516 5.51873 10.7133L15.5413 0.506482C15.8754 0.177818 16.323 -0.0040427 16.7875 6.82065e-05C17.252 0.00417911 17.6964 0.193933 18.0249 0.528461C18.3534 0.862989 18.5397 1.31552 18.5438 1.7886C18.5478 2.26168 18.3692 2.71744 18.0465 3.05773L9.27653 11.9889L18.0465 20.9201C18.2942 21.1724 18.4629 21.4939 18.5312 21.8438C18.5995 22.1938 18.5644 22.5565 18.4304 22.8861C18.2963 23.2158 18.0693 23.4975 17.778 23.6958C17.4867 23.8941 17.1442 23.9999 16.7939 24Z" fill="black"/>
</svg>
