<svg viewBox="0 0 24 24" fill="none" xmlns="http://www.w3.org/2000/svg">
<path d="M6.82811 24C6.46652 23.9999 6.11307 23.8941 5.81245 23.6958C5.51183 23.4975 5.27753 23.2158 5.13917 22.8861C5.0008 22.5565 4.96459 22.1938 5.03511 21.8438C5.10563 21.4939 5.27972 21.1724 5.53536 20.9201L14.5864 11.9889L5.53536 3.05773C5.20228 2.71744 5.01798 2.26168 5.02215 1.7886C5.02631 1.31552 5.21861 0.862989 5.55763 0.528461C5.89665 0.193933 6.35526 0.00417911 6.83469 6.82065e-05C7.31411 -0.0040427 7.77599 0.177818 8.12085 0.506482L18.4646 10.7133C18.8074 11.0516 19 11.5105 19 11.9889C19 12.4673 18.8074 12.9262 18.4646 13.2645L8.12085 23.4713C7.77802 23.8097 7.31301 23.9999 6.82811 24Z" fill="black"/>
</svg>
