<svg width="140" height="134" viewBox="0 0 140 134" fill="none" xmlns="http://www.w3.org/2000/svg">
<path d="M61.0034 6.53824C64.649 -0.973755 75.351 -0.973773 78.9966 6.53822L92.3986 34.1543C93.8561 37.1576 96.7162 39.2356 100.023 39.6937L130.429 43.906C138.7 45.0517 142.007 55.23 135.989 61.0184L113.866 82.2983C111.46 84.6126 110.368 87.9748 110.954 91.2613L116.344 121.481C117.81 129.701 109.152 135.991 101.787 132.057L74.7121 117.592C71.7676 116.019 68.2324 116.019 65.2879 117.592L38.2131 132.057C30.8484 135.991 22.1903 129.701 23.6564 121.481L29.0462 91.2613C29.6324 87.9748 28.54 84.6126 26.134 82.2983L4.01101 61.0184C-2.00678 55.23 1.30031 45.0517 9.57118 43.9059L39.9771 39.6937C43.2838 39.2356 46.1439 37.1576 47.6014 34.1543L61.0034 6.53824Z" fill="#FFB90C"/>
</svg>
